HIERARCHY
ROOT Hips
{
	OFFSET -0.001795 -0.223333 0.028219
	CHANNELS 6 Xposition Yposition Zposition Zrotation Yrotation Xrotation 
	JOINT LeftUpLeg
	{
		OFFSET 0.069520 -0.091406 -0.006815
		CHANNELS 3 Zrotation Yrotation Xrotation
		JOINT LeftLeg
		{
			OFFSET 0.034277 -0.375199 -0.004496
			CHANNELS 3 Zrotation Yrotation Xrotation
			JOINT LeftFoot
			{
				OFFSET -0.013596 -0.397961 -0.043693
				CHANNELS 3 Zrotation Yrotation Xrotation
				JOINT LeftToe
				{
					OFFSET 0.026358 -0.055791 0.119288
					CHANNELS 3 Zrotation Yrotation Xrotation
					End Site
					{
						OFFSET 0.000000 0.000000 0.000000
					}
				}
			}
		}
	}
	JOINT RightUpLeg
	{
		OFFSET -0.067670 -0.090522 -0.004320
		CHANNELS 3 Zrotation Yrotation Xrotation
		JOINT RightLeg
		{
			OFFSET -0.038290 -0.382569 -0.008850
			CHANNELS 3 Zrotation Yrotation Xrotation
			JOINT RightFoot
			{
				OFFSET 0.015774 -0.398415 -0.042312
				CHANNELS 3 Zrotation Yrotation Xrotation
				JOINT RightToe
				{
					OFFSET -0.025372 -0.048144 0.123348
					CHANNELS 3 Zrotation Yrotation Xrotation
					End Site
					{
						OFFSET 0.000000 0.000000 0.000000
					}
				}
			}
		}
	}
	JOINT Spine
	{
		OFFSET -0.002533 0.108963 -0.026696
		CHANNELS 3 Zrotation Yrotation Xrotation
		JOINT Spine1
		{
			OFFSET 0.005487 0.135180 0.001092
			CHANNELS 3 Zrotation Yrotation Xrotation
			JOINT Spine2
			{
				OFFSET 0.001457 0.052922 0.025425
				CHANNELS 3 Zrotation Yrotation Xrotation
				JOINT Neck
				{
					OFFSET -0.002778 0.213870 -0.042857
					CHANNELS 3 Zrotation Yrotation Xrotation
					JOINT Head
					{
						OFFSET 0.005152 0.064970 0.051349
						CHANNELS 3 Zrotation Yrotation Xrotation
						End Site
						{
							OFFSET 0.000000 0.000000 0.000000
						}
					}
				}
				JOINT LeftShoulder
				{
					OFFSET 0.078845 0.121749 -0.034090
					CHANNELS 3 Zrotation Yrotation Xrotation
					JOINT LeftArm
					{
						OFFSET 0.090977 0.030469 -0.008868
						CHANNELS 3 Zrotation Yrotation Xrotation
						JOINT LeftForeArm
						{
							OFFSET 0.259612 -0.012772 -0.027456
							CHANNELS 3 Zrotation Yrotation Xrotation
							JOINT LeftHand
							{
								OFFSET 0.249234 0.008986 -0.001171
								CHANNELS 3 Zrotation Yrotation Xrotation
								End Site
								{
									OFFSET 0.000000 0.000000 0.000000
								}
							}
						}
					}
				}
				JOINT RightShoulder
				{
					OFFSET -0.081759 0.118833 -0.038615
					CHANNELS 3 Zrotation Yrotation Xrotation
					JOINT RightArm
					{
						OFFSET -0.096012 0.032551 -0.009143
						CHANNELS 3 Zrotation Yrotation Xrotation
						JOINT RightForeArm
						{
							OFFSET -0.253742 -0.013329 -0.021401
							CHANNELS 3 Zrotation Yrotation Xrotation
							JOINT RightHand
							{
								OFFSET -0.255298 0.007772 -0.005559
								CHANNELS 3 Zrotation Yrotation Xrotation
								End Site
								{
									OFFSET 0.000000 0.000000 0.000000
								}
							}
						}
					}
				}
			}
		}
	}
}
MOTION
Frames: 6
Frame Time: 0.050000
0.042334 0.958042 0.105891 -1.637701 1.604408 3.208738 1.450768 -0.232213 -2.571071 3.872742 -0.316861 -1.370770 -3.423457 -1.322591 10.951016 0.000000 0.000000 0.000000 -3.045888 0.096720 -0.149731 0.516443 -0.094789 -1.122838 3.003086 1.561949 10.987355 0.000000 0.000000 0.000000 -3.434318 0.104064 -4.230542 -0.087832 -0.028055 2.044069 3.559402 -2.698720 7.017176 -5.470763 4.494901 0.605013 0.000000 0.000000 0.000000 1.888354 11.087557 -3.532530 -60.617687 -9.388894 -2.124339 -161.607085 -46.572565 150.738731 0.000000 0.000000 0.000000 -0.661307 -6.303380 -2.021342 56.541399 7.806395 -2.337586 162.204463 47.546915 146.211802 0.000000 0.000000 0.000000 
0.041901 0.957497 0.108458 -1.919610 1.558580 3.258735 1.637159 -0.232215 -2.567894 4.143718 -0.357114 -1.167268 -3.296981 -1.268626 10.605671 0.000000 0.000000 0.000000 -2.756688 0.065854 0.159505 1.001364 -0.168247 -1.963778 2.615916 0.424681 11.796684 0.000000 0.000000 0.000000 -3.578021 0.106357 -4.747557 -0.089123 -0.025404 1.993963 3.819738 -2.905400 7.065249 -5.558006 4.556447 0.136527 0.000000 0.000000 0.000000 0.600257 12.143948 -4.112743 -62.365554 -9.591357 -2.004487 -163.076676 -46.117320 153.838567 0.000000 0.000000 0.000000 0.649210 -6.616747 -2.351758 57.994835 7.698264 -2.474841 164.491318 48.247480 151.619512 0.000000 0.000000 0.000000 
0.041369 0.956952 0.110206 -2.093275 1.159925 3.663712 1.846427 -0.241871 -2.681529 4.126409 -0.338933 -1.428988 -3.050770 -0.959339 10.465014 0.000000 0.000000 0.000000 -2.548313 0.100994 -0.303366 1.307875 -0.206682 -2.377607 2.364408 -0.486947 12.657390 0.000000 0.000000 0.000000 -3.671722 0.115818 -5.309085 -0.043154 -0.049568 2.124321 3.891142 -2.915739 6.626676 -5.912003 4.816434 -0.502696 0.000000 0.000000 0.000000 -0.889712 12.875050 -4.631540 -64.182288 -9.918460 -1.764707 -164.713677 -46.413432 157.757884 0.000000 0.000000 0.000000 2.280153 -7.128717 -2.831281 60.104443 7.565605 -2.594342 166.070668 48.691713 155.188297 0.000000 0.000000 0.000000 
0.040693 0.955886 0.111191 -2.286719 0.817061 3.723997 2.372295 -0.243795 -2.715301 3.608851 -0.303035 -1.256214 -2.787392 -0.733400 10.042877 0.000000 0.000000 0.000000 -2.268145 0.126275 -0.686006 1.478570 -0.214056 -2.142279 2.078322 -1.177004 12.874762 0.000000 0.000000 0.000000 -3.989706 0.110629 -5.182979 0.264741 -0.185129 1.707596 4.038229 -2.945079 6.307731 -5.633273 4.560883 -1.122906 0.000000 0.000000 0.000000 -2.291775 13.373419 -5.066577 -65.279304 -10.383181 -1.452874 -165.944934 -47.251141 161.044443 0.000000 0.000000 0.000000 3.448619 -7.032056 -3.024179 62.285327 7.571596 -2.675833 166.789176 49.790076 157.208740 0.000000 0.000000 0.000000 
0.040027 0.955348 0.111339 -2.428506 0.943403 3.722397 2.658284 -0.243001 -2.699327 3.481723 -0.287377 -1.299964 -2.806238 -0.834200 9.858100 0.000000 0.000000 0.000000 -1.986370 0.147184 -1.023291 1.358493 -0.186062 -1.497544 1.937579 -1.303147 12.562322 0.000000 0.000000 0.000000 -4.244813 0.102984 -5.068754 0.455613 -0.280220 1.703665 3.990083 -3.123786 5.979925 -5.535738 4.450157 -1.914696 0.000000 0.000000 0.000000 -2.903583 13.673353 -5.288852 -66.746006 -10.791153 -1.155067 -165.558816 -48.747625 160.961697 0.000000 0.000000 0.000000 4.373423 -7.237828 -3.287040 65.000176 7.554809 -2.786156 165.964411 51.949195 156.534888 0.000000 0.000000 0.000000 
0.039452 0.954735 0.111169 -2.591812 0.895706 3.852164 2.865470 -0.246229 -2.736121 3.499188 -0.277014 -1.485530 -2.735651 -0.791357 9.692181 0.000000 0.000000 0.000000 -1.501422 0.177750 -1.481888 0.877362 -0.124015 -0.965666 1.859605 -1.334989 12.245636 0.000000 0.000000 0.000000 -4.372027 0.102505 -4.993960 0.440842 -0.266273 1.533069 4.035480 -3.115261 6.028245 -5.337774 4.297853 -1.724911 0.000000 0.000000 0.000000 -3.654488 13.728073 -5.450114 -67.118603 -10.113608 -1.583847 -164.106125 -49.706471 158.406999 0.000000 0.000000 0.000000 5.851298 -6.932076 -3.465472 66.566828 7.050538 -3.129797 163.920365 54.567436 153.929524 0.000000 0.000000 0.000000 
